<?xml version="1.0" ?><svg data-name="Layer 1" id="Layer_1" viewBox="0 0 128 128" xmlns="http://www.w3.org/2000/svg"><defs><style>.cls-1{fill:#ecc6c3;}.cls-2{fill:#e44450;}.cls-3{fill:none;}</style></defs><title/><circle class="cls-1" cx="44.9" cy="82.58" r="31.52"/><path class="cls-2" d="M50.89,44.23a15.24,15.24,0,0,1,2.33.47q.7.24.78.48c.07.32-.36.63-1.17,1s-1.8.63-2.39.95-.59.63-.75,1a30.79,30.79,0,0,0-1.49,3.8,22.52,22.52,0,0,0-.9,3.8,12.35,12.35,0,0,0,0,3.79,2.05,2.05,0,1,1-4,0,12.35,12.35,0,0,0,0-3.79,22.52,22.52,0,0,0-.9-3.8A32.46,32.46,0,0,0,40.83,48c-.17-.32-.16-.63-.75-1s-1.59-.63-2.39-.95-1.24-.63-1.17-1q.07-.24.78-.48a15.24,15.24,0,0,1,2.33-.47A42,42,0,0,1,50.89,44.23Z"/><path class="cls-2" d="M83.61,88.93a13.6,13.6,0,0,1-.48,2.33c-.16.47-.31.73-.47.78-.32.07-.64-.36-1-1.17s-.64-1.8-.95-2.39-.63-.58-1-.75A33.17,33.17,0,0,0,76,86.24a22.75,22.75,0,0,0-3.8-.9,12.41,12.41,0,0,0-3.8,0,2.05,2.05,0,0,1-.73-4,2.24,2.24,0,0,1,.73,0,12.41,12.41,0,0,0,3.8,0,22.75,22.75,0,0,0,3.8-.9,31.42,31.42,0,0,0,3.8-1.49c.32-.16.63-.16,1-.75s.63-1.59.95-2.39.63-1.24,1-1.17c.16.06.31.31.47.78a13.83,13.83,0,0,1,.48,2.33A42,42,0,0,1,83.61,88.93Z"/><path class="cls-2" d="M38.91,121.65a15,15,0,0,1-2.33-.47c-.48-.16-.73-.32-.78-.48-.08-.32.36-.63,1.17-1s1.8-.63,2.38-1,.59-.63.76-1a33.17,33.17,0,0,0,1.49-3.8,22.49,22.49,0,0,0,.89-3.8,12,12,0,0,0,0-3.79,2,2,0,1,1,4-.74,1.84,1.84,0,0,1,0,.74,12,12,0,0,0,0,3.79,22.49,22.49,0,0,0,.89,3.8,33.17,33.17,0,0,0,1.49,3.8c.17.32.17.63.76,1s1.59.63,2.38,1,1.25.63,1.17,1c-.05.16-.3.32-.78.48a15,15,0,0,1-2.33.47A42,42,0,0,1,38.91,121.65Z"/><path class="cls-2" d="M6.19,77a13.86,13.86,0,0,1,.47-2.33q.24-.7.48-.78c.31-.07.63.36,1,1.17A25.32,25.32,0,0,0,9,77.4c.31.59.63.58,1,.75a33,33,0,0,0,3.79,1.49,23,23,0,0,0,3.8.9,12.42,12.42,0,0,0,3.8,0,2.05,2.05,0,1,1,.74,4,2.3,2.3,0,0,1-.74,0,12.42,12.42,0,0,0-3.8,0,23,23,0,0,0-3.8.9A31.29,31.29,0,0,0,10,87c-.32.16-.64.16-1,.75a25.32,25.32,0,0,0-.95,2.39c-.32.81-.64,1.24-1,1.17-.16-.06-.32-.31-.48-.78a14.09,14.09,0,0,1-.47-2.33A41.62,41.62,0,0,1,6.19,77Z"/><path class="cls-2" d="M76.5,59.8a13.3,13.3,0,0,1,1.32,2c.22.44.29.74.21.88s-.7.2-1.5-.15-1.72-.83-2.36-1a1.49,1.49,0,0,0-1.2.14,32.45,32.45,0,0,0-3.74,1.63,23.14,23.14,0,0,0-3.32,2.06A12.21,12.21,0,0,0,63.21,68a2.06,2.06,0,0,1-3.38-2.34,2.33,2.33,0,0,1,.52-.52A12.21,12.21,0,0,0,63,62.44a23.14,23.14,0,0,0,2.06-3.32,32.45,32.45,0,0,0,1.63-3.74,1.55,1.55,0,0,0,.14-1.21c-.19-.64-.68-1.57-1-2.36s-.43-1.32-.15-1.49.44,0,.88.21a13.86,13.86,0,0,1,2,1.31A41.9,41.9,0,0,1,76.5,59.8Z"/><path class="cls-2" d="M68,114.55a13.36,13.36,0,0,1-2,1.31c-.45.22-.74.29-.89.21s-.19-.7.16-1.49.82-1.72,1-2.36A1.56,1.56,0,0,0,66.2,111a30.84,30.84,0,0,0-1.64-3.74A22.75,22.75,0,0,0,62.51,104a12.21,12.21,0,0,0-2.67-2.7,2.06,2.06,0,0,1,2.34-3.38,2.38,2.38,0,0,1,.52.53,12.43,12.43,0,0,0,2.7,2.67,23.43,23.43,0,0,0,3.32,2.05,32.45,32.45,0,0,0,3.74,1.63,1.49,1.49,0,0,0,1.2.14c.64-.19,1.57-.68,2.36-1s1.33-.43,1.5-.15,0,.44-.22.89a13.59,13.59,0,0,1-1.31,2A42,42,0,0,1,68,114.55Z"/><path class="cls-2" d="M13.29,106.08a13.86,13.86,0,0,1-1.31-2c-.23-.44-.29-.74-.22-.88s.7-.2,1.5.15,1.72.83,2.36,1a1.49,1.49,0,0,0,1.2-.14,32.45,32.45,0,0,0,3.74-1.63,22.6,22.6,0,0,0,3.32-2.06,12.48,12.48,0,0,0,2.71-2.67A2.05,2.05,0,1,1,30,100.22a2,2,0,0,1-.52.52,12.21,12.21,0,0,0-2.67,2.7,23.09,23.09,0,0,0-2.05,3.32,32.45,32.45,0,0,0-1.63,3.74,1.47,1.47,0,0,0-.14,1.21c.19.63.67,1.57,1,2.35s.44,1.33.16,1.5-.44,0-.89-.21a14.51,14.51,0,0,1-2-1.31A42,42,0,0,1,13.29,106.08Z"/><path class="cls-2" d="M21.76,51.33a14.51,14.51,0,0,1,2-1.31c.45-.22.74-.29.89-.22s.19.71-.15,1.5-.83,1.72-1,2.36a1.51,1.51,0,0,0,.14,1.21,32.45,32.45,0,0,0,1.63,3.74,23.65,23.65,0,0,0,2.05,3.32A12.21,12.21,0,0,0,30,64.63,2,2,0,0,1,27.62,68a1.84,1.84,0,0,1-.52-.52,12,12,0,0,0-2.71-2.67,23.9,23.9,0,0,0-3.31-2.05,32.45,32.45,0,0,0-3.74-1.63A1.52,1.52,0,0,0,16.13,61c-.64.19-1.57.68-2.36,1s-1.33.43-1.5.15,0-.44.22-.89a14.51,14.51,0,0,1,1.31-2A42.25,42.25,0,0,1,21.76,51.33Z"/><circle class="cls-1" cx="96.07" cy="31.09" r="20.32"/><path class="cls-2" d="M99.94,6.37c1.4.21,1.92.41,2,.61s-.21.41-.78.62l-.78.3a5.73,5.73,0,0,0-.72.31c-.41.2-.38.41-.5.61a20.68,20.68,0,0,0-1,2.45,15.53,15.53,0,0,0-.58,2.45,8,8,0,0,0,0,2.45,1.32,1.32,0,1,1-2.6.47,1.24,1.24,0,0,1,0-.47,7.74,7.74,0,0,0,0-2.45,13.6,13.6,0,0,0-.58-2.45,19.09,19.09,0,0,0-1-2.45c-.11-.2-.09-.41-.5-.61a4.67,4.67,0,0,0-.72-.31l-.77-.3c-.58-.21-.82-.41-.78-.62s.59-.4,2-.61A26.34,26.34,0,0,1,99.94,6.37Z"/><path class="cls-2" d="M121,35.19c-.21,1.4-.41,1.92-.61,2s-.41-.21-.62-.78l-.3-.78a7.71,7.71,0,0,0-.31-.72c-.2-.41-.41-.38-.61-.5a20.68,20.68,0,0,0-2.45-1,15.53,15.53,0,0,0-2.45-.58,8,8,0,0,0-2.45,0,1.32,1.32,0,1,1-.47-2.6,1.24,1.24,0,0,1,.47,0,7.74,7.74,0,0,0,2.45,0,13.6,13.6,0,0,0,2.45-.58,19.09,19.09,0,0,0,2.45-1c.2-.11.41-.09.61-.5a5.92,5.92,0,0,0,.31-.72l.3-.77c.21-.58.41-.82.62-.78s.4.59.61,2A26.34,26.34,0,0,1,121,35.19Z"/><path class="cls-2" d="M92.21,56.28c-1.4-.21-1.92-.41-2-.62s.2-.4.78-.61l.78-.3a7.71,7.71,0,0,0,.72-.31c.41-.2.38-.41.5-.61a22.55,22.55,0,0,0,1-2.45,14.46,14.46,0,0,0,.57-2.45,7.74,7.74,0,0,0,0-2.45,1.32,1.32,0,1,1,2.6-.47,1.24,1.24,0,0,1,0,.47,7.74,7.74,0,0,0,0,2.45,13.6,13.6,0,0,0,.58,2.45,19.09,19.09,0,0,0,1,2.45c.11.2.08.41.5.61a5.92,5.92,0,0,0,.72.31l.77.3c.58.21.82.41.78.61s-.59.41-2,.62A26.34,26.34,0,0,1,92.21,56.28Z"/><path class="cls-2" d="M71.12,27.46c.21-1.4.41-1.92.61-2s.41.2.62.78l.3.78a5.73,5.73,0,0,0,.31.72c.2.41.41.38.61.5a22.55,22.55,0,0,0,2.45,1,14.46,14.46,0,0,0,2.45.57,7.74,7.74,0,0,0,2.45,0,1.32,1.32,0,1,1,.47,2.6,1.24,1.24,0,0,1-.47,0,7.74,7.74,0,0,0-2.45,0A13.6,13.6,0,0,0,76,33a19.09,19.09,0,0,0-2.45,1c-.2.11-.41.08-.61.5a4.67,4.67,0,0,0-.31.72l-.3.77c-.21.58-.41.82-.62.78s-.4-.59-.61-2A26.34,26.34,0,0,1,71.12,27.46Z"/><path class="cls-2" d="M116.45,16.41c.85,1.14,1.07,1.65,1,1.85s-.43.14-1-.12l-.77-.33a4.15,4.15,0,0,0-.72-.29.9.9,0,0,0-.79.08,20.14,20.14,0,0,0-2.41,1A15.34,15.34,0,0,0,109.62,20a7.89,7.89,0,0,0-1.74,1.72,1.32,1.32,0,0,1-2.18-1.5,1.22,1.22,0,0,1,.34-.34,7.89,7.89,0,0,0,1.72-1.74A15.34,15.34,0,0,0,109.08,16a20.14,20.14,0,0,0,1-2.41.9.9,0,0,0,.08-.79,4.15,4.15,0,0,0-.29-.72l-.33-.77c-.26-.55-.29-.87-.12-1s.71.13,1.85,1A26.52,26.52,0,0,1,116.45,16.41Z"/><path class="cls-2" d="M111,51.7c-1.14.85-1.65,1.07-1.85,1s-.14-.43.12-1l.33-.77a4.15,4.15,0,0,0,.29-.72.9.9,0,0,0-.08-.79,20.14,20.14,0,0,0-1-2.41,15.34,15.34,0,0,0-1.32-2.14,7.89,7.89,0,0,0-1.72-1.74,1.32,1.32,0,1,1,1.5-2.18,1.22,1.22,0,0,1,.34.34A7.89,7.89,0,0,0,109.29,43a15.34,15.34,0,0,0,2.14,1.32,20.14,20.14,0,0,0,2.41,1.05.9.9,0,0,0,.79.08,4.15,4.15,0,0,0,.72-.29l.77-.33c.55-.27.87-.29,1-.12s-.13.71-1,1.85A26.52,26.52,0,0,1,111,51.7Z"/><path class="cls-2" d="M75.7,46.24c-.85-1.14-1.07-1.65-1-1.85s.43-.14,1,.12l.77.33a4.15,4.15,0,0,0,.72.29.9.9,0,0,0,.79-.08,20.14,20.14,0,0,0,2.41-1,15.34,15.34,0,0,0,2.14-1.32A7.89,7.89,0,0,0,84.27,41a1.32,1.32,0,1,1,2.18,1.5,1.22,1.22,0,0,1-.34.34,7.89,7.89,0,0,0-1.72,1.74,15.34,15.34,0,0,0-1.32,2.14,20.14,20.14,0,0,0-1,2.41.9.9,0,0,0-.08.79,4.15,4.15,0,0,0,.29.72l.33.77c.26.55.29.87.12,1s-.71-.13-1.85-1A26.52,26.52,0,0,1,75.7,46.24Z"/><path class="cls-2" d="M81.16,11c1.14-.85,1.65-1.07,1.85-1s.14.43-.12,1l-.33.77a4.15,4.15,0,0,0-.29.72.9.9,0,0,0,.08.79,20.14,20.14,0,0,0,1.05,2.41,15.34,15.34,0,0,0,1.32,2.14,7.89,7.89,0,0,0,1.72,1.74,1.32,1.32,0,0,1-1.5,2.18,1.22,1.22,0,0,1-.34-.34,7.89,7.89,0,0,0-1.74-1.72,15.34,15.34,0,0,0-2.14-1.32,20.14,20.14,0,0,0-2.41-1.05.9.9,0,0,0-.79-.08,4.15,4.15,0,0,0-.72.29l-.77.33c-.55.26-.87.29-1,.12s.13-.71,1-1.85A26.52,26.52,0,0,1,81.16,11Z"/><circle class="cls-1" cx="94" cy="106" r="6"/><circle class="cls-1" cx="48.5" cy="27.5" r="6.5"/><circle class="cls-1" cx="22.5" cy="29.5" r="11.5"/><circle class="cls-1" cx="105.5" cy="79.5" r="9.5"/><rect class="cls-3" height="128" width="128"/></svg>