<?xml version="1.0" ?><svg height="512" viewBox="0 0 512 512" width="512" xmlns="http://www.w3.org/2000/svg"><g><g><g><path d="M408,320v24a8,8,0,0,0,16,0V320a8,8,0,0,0,0-16H408a8,8,0,0,0,0,16Z" fill="#009d54"/><path d="M424,432V408a8,8,0,0,0-16,0v24a8,8,0,0,0,0,16h16a8,8,0,0,0,0-16Z" fill="#009d54"/><path d="M480,360a8,8,0,0,0-8,8H448a8,8,0,0,0,0,16h24a8,8,0,0,0,16,0V368A8,8,0,0,0,480,360Z" fill="#009d54"/><path d="M384,384a8,8,0,0,0,0-16H360a8,8,0,0,0-16,0v16a8,8,0,0,0,16,0Z" fill="#009d54"/><circle cx="416" cy="376" fill="#5ec09b" r="32"/><path d="M458.343,402.343,456,404.686l-11.716-11.715a8,8,0,1,0-11.314,11.313L444.686,416l-2.343,2.343a8,8,0,0,0,11.314,11.314l16-16a8,8,0,0,0-11.314-11.314Z" fill="#009d54"/><path d="M432.97,359.029a8,8,0,0,0,11.314,0L456,347.314l2.343,2.343a8,8,0,0,0,11.314-11.314l-16-16a8,8,0,0,0-11.314,11.314L444.686,336,432.97,347.716A8,8,0,0,0,432.97,359.029Z" fill="#009d54"/><path d="M368,352a7.974,7.974,0,0,0,5.657-2.343L376,347.314l11.716,11.715a8,8,0,0,0,11.314-11.313L387.314,336l2.343-2.343a8,8,0,0,0-11.314-11.314l-16,16A8,8,0,0,0,368,352Z" fill="#009d54"/><path d="M399.03,392.971a8,8,0,0,0-11.314,0L376,404.686l-2.343-2.343a8,8,0,0,0-11.314,11.314l16,16a8,8,0,0,0,11.314-11.314L387.314,416l11.716-11.716A8,8,0,0,0,399.03,392.971Z" fill="#009d54"/></g><path d="M416,416a40,40,0,1,1,40-40A40.045,40.045,0,0,1,416,416Zm0-64a24,24,0,1,0,24,24A24.028,24.028,0,0,0,416,352Z" fill="#1a9663"/></g><path d="M208,56l-4.422-8.845A41.889,41.889,0,0,0,166.111,24h-4.222a41.889,41.889,0,0,0-37.467,23.155h0A41.9,41.9,0,0,0,120,65.889V112L80,128,48,224l32,32V424l16,8v56h64V464l-16-8V432l16-8,16-80v80l16,8v56h64V464l-16-8V432l16-8V256l80-56,8,8,32-24-24-32-32,16-32,16-32-56-48-16Z" fill="#eceff0"/><circle cx="420.374" cy="227.87" fill="#5ec09b" r="16"/><circle cx="40" cy="112" fill="#5ec09b" r="16"/><circle cx="408" cy="40" fill="#5ec09b" r="16"/><circle cx="472" cy="472" fill="#5ec09b" r="16"/><circle cx="304" cy="384" fill="#5ec09b" r="16"/><circle cx="304.364" cy="82.57" fill="#5ec09b" r="16"/><circle cx="360" cy="272" fill="#7bd7ef" r="8"/><circle cx="488" cy="24" fill="#7bd7ef" r="8"/><circle cx="304" cy="296" fill="#7bd7ef" r="8"/><circle cx="48" cy="32" fill="#7bd7ef" r="8"/><circle cx="360" cy="48" fill="#7bd7ef" r="8"/><circle cx="248" cy="32" fill="#7bd7ef" r="8"/><circle cx="312" cy="464" fill="#7bd7ef" r="8"/><circle cx="392" cy="472" fill="#7bd7ef" r="8"/><circle cx="472" cy="280" fill="#7bd7ef" r="8"/><path d="M184,80l-8,8H160v16s0,16,24,16,24-16,24-16V88H192Z" fill="#aedef8"/><path d="M120,80a8,8,0,0,1-.008-16l32-.03H152a8,8,0,0,1,.008,16l-32,.03Z" fill="#fcc200"/><path d="M176,352a8,8,0,0,1-8-8V120a8,8,0,0,1,16,0V344A8,8,0,0,1,176,352Z" fill="#00a8e7"/><path d="M248,216H104a8,8,0,0,1,0-16H248a8,8,0,0,1,0,16Z" fill="#00a8e7"/><path d="M248,264a8,8,0,0,1-8-8V176a8,8,0,0,1,16,0v80A8,8,0,0,1,248,264Z" fill="#d1e1e5"/><polygon fill="#00a8e7" points="192 432 240 432 240 456 256 464 256 488 192 488 192 432"/><polyline fill="#00a8e7" points="96 432 144 432 144 456 160 464 160 488 96 488 96 432"/><polygon fill="#00a8e7" points="344 208 320 168 352 152 376 184 344 208"/><path d="M48,312H72a24,24,0,0,1,24,24V488a0,0,0,0,1,0,0H24a0,0,0,0,1,0,0V336a24,24,0,0,1,24-24Z" fill="#1a9663"/><rect fill="#fcc200" height="24" width="24" x="48" y="288"/><path d="M160.007,288a8,8,0,0,1-3.976-14.947l168-96a8,8,0,1,1,7.938,13.892l-168,96A7.968,7.968,0,0,1,160.007,288Z" fill="#fcc200"/><path d="M360,168a8,8,0,0,1-5.657-13.657l24-24A8,8,0,0,1,384,128h16a8,8,0,0,1,0,16H387.313l-21.656,21.657A7.976,7.976,0,0,1,360,168Z" fill="#fcc200"/><path d="M100,408a44.049,44.049,0,0,1-44-44V312a8,8,0,0,1,16,0v52a28,28,0,0,0,56,0V320a8,8,0,0,1,16,0v44A44.049,44.049,0,0,1,100,408Z" fill="#42a87e"/><path d="M488,144H432a8,8,0,0,1,0-16h56a8,8,0,0,1,0,16Z" fill="#aedef8"/><path d="M424.006,120a8,8,0,0,1-3.584-15.157l48-24a8,8,0,1,1,7.156,14.31l-48,24A7.976,7.976,0,0,1,424.006,120Z" fill="#aedef8"/><path d="M471.994,192a7.976,7.976,0,0,1-3.572-.847l-48-24a8,8,0,0,1,7.156-14.31l48,24A8,8,0,0,1,471.994,192Z" fill="#aedef8"/><g><path d="M199.782,55.818l-31.813.121A16.031,16.031,0,0,0,152,71.969h0A16.03,16.03,0,0,0,168.03,88H176l8-8,8,8,8.007-.082a16.03,16.03,0,0,0,15.867-16.029v-.041A16.03,16.03,0,0,0,199.782,55.818Z" fill="#aedef8"/><path d="M176,96h-7.97a24.031,24.031,0,0,1-.092-48.061l31.814-.121h.095a24.029,24.029,0,0,1,24.027,24.03,24.118,24.118,0,0,1-23.786,24.07L192.082,96H192a8,8,0,0,1-5.657-2.343L184,91.313l-2.343,2.344A8,8,0,0,1,176,96Zm23.812-32.182L168,63.939A8.031,8.031,0,0,0,168.03,80h4.657l5.656-5.657a8,8,0,0,1,11.314,0l5.623,5.623,4.645-.047a8.059,8.059,0,0,0,5.586-13.76,7.921,7.921,0,0,0-5.7-2.341Zm-.03-8h0Z" fill="#00a8e7"/></g><path d="M136,328c-.188,0-.377-.007-.567-.02a8,8,0,0,1-5.833-3.18l-23.659-31.545-31.6-31.6a8,8,0,0,1,11.313-11.314l32,32a8.078,8.078,0,0,1,.743.857l18.466,24.621L156.687,288l-18.344-18.343A8,8,0,0,1,136,264V251.313L98.343,213.657a8,8,0,0,1-2.1-7.6l8-32a8,8,0,1,1,15.522,3.88l-6.9,27.606,36.8,36.8A8,8,0,0,1,152,248v12.687l21.657,21.656a8,8,0,0,1,0,11.314l-32,32A8,8,0,0,1,136,328Z" fill="#d1e1e5"/><polygon fill="#00a8e7" points="112 288 144 264 168 288 136 320 112 288"/></g></svg>