<?xml version="1.0" ?><svg height="512" viewBox="0 0 512 512" width="512" xmlns="http://www.w3.org/2000/svg"><g><g><path d="M127.921,73.392l7.971-27.571a16.548,16.548,0,0,1,8.5-10.206l.038-.018a6.122,6.122,0,0,0,3.384-5.476h0A6.122,6.122,0,0,0,141.688,24H114.312a6.122,6.122,0,0,0-6.122,6.121h0a6.122,6.122,0,0,0,3.384,5.476h0a16.546,16.546,0,0,1,8.516,10.272Z" fill="#009f77"/><path d="M127.921,182.608l7.971,27.571a16.548,16.548,0,0,0,8.5,10.206l.038.018a6.122,6.122,0,0,1,3.384,5.476h0A6.122,6.122,0,0,1,141.688,232H114.312a6.122,6.122,0,0,1-6.122-6.121h0a6.122,6.122,0,0,1,3.384-5.476h0a16.546,16.546,0,0,0,8.516-10.272Z" fill="#009f77"/><path d="M73.392,128.079l-27.571-7.971a16.548,16.548,0,0,1-10.206-8.5l-.018-.038a6.122,6.122,0,0,0-5.476-3.384h0A6.122,6.122,0,0,0,24,114.312v27.376a6.122,6.122,0,0,0,6.121,6.122h0a6.122,6.122,0,0,0,5.476-3.384h0a16.546,16.546,0,0,1,10.272-8.516Z" fill="#009f77"/><path d="M182.608,128.079l27.571-7.971a16.548,16.548,0,0,0,10.206-8.5l.018-.038a6.122,6.122,0,0,1,5.476-3.384h0A6.122,6.122,0,0,1,232,114.312v27.376a6.122,6.122,0,0,1-6.121,6.122h0a6.122,6.122,0,0,1-5.476-3.384h0a16.546,16.546,0,0,0-10.272-8.516Z" fill="#009f77"/><path d="M89.33,89.442,75.471,64.31a16.545,16.545,0,0,1-1.209-13.224l.014-.04A6.123,6.123,0,0,0,72.8,44.782h0a6.121,6.121,0,0,0-8.657,0l-9.679,9.679L44.782,64.14a6.121,6.121,0,0,0,0,8.657h0a6.123,6.123,0,0,0,6.264,1.479h0a16.55,16.55,0,0,1,13.286,1.242Z" fill="#009f77"/><path d="M166.558,166.67l25.132,13.859a16.545,16.545,0,0,0,13.224,1.209l.04-.014a6.123,6.123,0,0,1,6.264,1.479h0a6.121,6.121,0,0,1,0,8.657l-9.679,9.679-9.679,9.679a6.121,6.121,0,0,1-8.657,0h0a6.123,6.123,0,0,1-1.479-6.264h0a16.55,16.55,0,0,0-1.242-13.286Z" fill="#009f77"/><path d="M89.442,166.67,64.31,180.529a16.545,16.545,0,0,1-13.224,1.209l-.04-.014a6.123,6.123,0,0,0-6.264,1.479h0a6.121,6.121,0,0,0,0,8.657l9.679,9.679,9.679,9.679a6.121,6.121,0,0,0,8.657,0h0a6.123,6.123,0,0,0,1.479-6.264h0a16.55,16.55,0,0,1,1.242-13.286Z" fill="#009f77"/><path d="M166.67,89.442,180.529,64.31a16.545,16.545,0,0,0,1.209-13.224l-.014-.04a6.123,6.123,0,0,1,1.479-6.264h0a6.121,6.121,0,0,1,8.657,0l9.679,9.679,9.679,9.679a6.121,6.121,0,0,1,0,8.657h0a6.123,6.123,0,0,1-6.264,1.479h0a16.55,16.55,0,0,0-13.286,1.242Z" fill="#009f77"/><g><circle cx="128" cy="128" fill="#5ec09b" r="69.333"/><circle cx="142.857" cy="98.286" fill="#009f77" r="14.857"/><circle cx="137.905" cy="152.762" fill="#009f77" r="19.81"/><circle cx="93.333" cy="123.048" fill="#009f77" r="9.905"/><circle cx="108.19" cy="93.333" fill="#e92949" r="4.952"/><circle cx="93.333" cy="157.714" fill="#e92949" r="4.952"/><circle cx="172.571" cy="128" fill="#e92949" r="4.952"/></g></g><g><path d="M319.872,231.787l12.876-44.538a26.731,26.731,0,0,1,13.725-16.486l.061-.03A9.888,9.888,0,0,0,352,161.889h0A9.888,9.888,0,0,0,342.111,152H297.889A9.888,9.888,0,0,0,288,161.889h0a9.888,9.888,0,0,0,5.466,8.844h0a26.734,26.734,0,0,1,13.757,16.6Z" fill="#e92949"/><path d="M319.872,408.213l12.876,44.538a26.731,26.731,0,0,0,13.725,16.486l.061.03A9.888,9.888,0,0,1,352,478.111h0A9.888,9.888,0,0,1,342.111,488H297.889A9.888,9.888,0,0,1,288,478.111h0a9.888,9.888,0,0,1,5.466-8.844h0a26.734,26.734,0,0,0,13.757-16.595Z" fill="#e92949"/><path d="M231.787,320.128l-44.538-12.876a26.731,26.731,0,0,1-16.486-13.725l-.03-.061A9.888,9.888,0,0,0,161.889,288h0A9.888,9.888,0,0,0,152,297.889v44.222A9.888,9.888,0,0,0,161.889,352h0a9.888,9.888,0,0,0,8.844-5.466h0a26.734,26.734,0,0,1,16.6-13.757Z" fill="#e92949"/><path d="M408.213,320.128l44.538-12.876a26.731,26.731,0,0,0,16.486-13.725l.03-.061A9.888,9.888,0,0,1,478.111,288h0A9.888,9.888,0,0,1,488,297.889v44.222A9.888,9.888,0,0,1,478.111,352h0a9.888,9.888,0,0,1-8.844-5.466h0a26.734,26.734,0,0,0-16.595-13.757Z" fill="#e92949"/><path d="M257.533,257.715l-22.388-40.6a26.728,26.728,0,0,1-1.952-21.361l.022-.065a9.89,9.89,0,0,0-2.389-10.119h0a9.889,9.889,0,0,0-13.985,0l-15.635,15.635-15.635,15.635a9.889,9.889,0,0,0,0,13.985h0a9.89,9.89,0,0,0,10.119,2.389h0a26.733,26.733,0,0,1,21.462,2.006Z" fill="#e92949"/><path d="M382.285,382.467l40.6,22.388a26.728,26.728,0,0,0,21.361,1.952l.065-.022a9.89,9.89,0,0,1,10.119,2.389h0a9.889,9.889,0,0,1,0,13.985l-15.635,15.635-15.635,15.635a9.889,9.889,0,0,1-13.985,0h0a9.89,9.89,0,0,1-2.389-10.119h0a26.733,26.733,0,0,0-2.006-21.462Z" fill="#e92949"/><path d="M257.715,382.467l-40.6,22.388a26.728,26.728,0,0,1-21.361,1.952l-.065-.022a9.89,9.89,0,0,0-10.119,2.389h0a9.889,9.889,0,0,0,0,13.985l15.635,15.635,15.635,15.635a9.889,9.889,0,0,0,13.985,0h0a9.89,9.89,0,0,0,2.389-10.119h0a26.733,26.733,0,0,1,2.006-21.462Z" fill="#e92949"/><path d="M382.467,257.715l22.388-40.6a26.728,26.728,0,0,0,1.952-21.361l-.022-.065a9.89,9.89,0,0,1,2.389-10.119h0a9.889,9.889,0,0,1,13.985,0l15.635,15.635,15.635,15.635a9.889,9.889,0,0,1,0,13.985h0a9.89,9.89,0,0,1-10.119,2.389h0a26.733,26.733,0,0,0-21.462,2.006Z" fill="#e92949"/><g><circle cx="320" cy="320" fill="#5ec09b" r="112"/><circle cx="344" cy="272" fill="#009f77" r="24"/><circle cx="336" cy="360" fill="#009f77" r="32"/><circle cx="264" cy="312" fill="#009f77" r="16"/><circle cx="288" cy="264" fill="#009d54" r="8"/><circle cx="264" cy="368" fill="#009d54" r="8"/><circle cx="392" cy="320" fill="#009d54" r="8"/></g></g></g></svg>