<svg height="480pt" viewBox="0 -19 480 480" width="480pt" xmlns="http://www.w3.org/2000/svg"><path d="m365.039062 239.484375h-311.019531l36.5625-98.871094c6.070313-16.414062 21.542969-27.285156 38.828125-27.285156h160.234375c17.289063 0 32.761719 10.875 38.828125 27.285156zm0 0" fill="#4671c6"/><path d="m86.007812 212.867188 23.988282-64.867188c3.035156-8.207031 10.773437-13.644531 19.414062-13.644531h160.234375c8.644531 0 16.382813 5.4375 19.417969 13.644531l23.988281 64.867188c1 2.707031-.972656 5.59375-3.820312 5.59375h-239.402344c-2.847656 0-4.820313-2.886719-3.820313-5.59375zm0 0" fill="#e0ebfc"/><path d="m365.039062 243.488281h-311.015624c-1.308594 0-2.539063-.640625-3.285157-1.714843-.75-1.074219-.921875-2.445313-.46875-3.671876l36.558594-98.871093c6.617187-17.882813 23.726563-29.898438 42.582031-29.898438h160.238282c18.859374 0 35.96875 12.015625 42.578124 29.898438l36.5625 98.871093c.453126 1.226563.28125 2.597657-.46875 3.671876-.746093 1.070312-1.972656 1.714843-3.28125 1.714843zm-305.273437-8h299.53125l-34.570313-93.484375c-5.457031-14.757812-19.550781-24.671875-35.078124-24.671875h-160.238282c-15.523437 0-29.621094 9.914063-35.074218 24.671875zm0 0" fill="#3762cc"/><path d="m400.191406 380.246094h-384.382812c-6.519532 0-11.808594-5.289063-11.808594-11.8125v-30.164063c0-6.523437 5.289062-11.808593 11.808594-11.808593h384.382812c6.519532 0 11.808594 5.285156 11.808594 11.808593v30.164063c0 6.527344-5.289062 11.8125-11.808594 11.8125zm0 0" fill="#6bdddd"/><path d="m400.191406 384.246094h-384.382812c-8.714844 0-15.808594-7.09375-15.808594-15.8125v-30.164063c0-8.714843 7.09375-15.808593 15.808594-15.808593h384.378906c8.71875 0 15.808594 7.09375 15.808594 15.808593v30.164063c.003906 8.71875-7.089844 15.8125-15.804688 15.8125zm-384.382812-53.785156c-4.304688 0-7.808594 3.503906-7.808594 7.808593v30.164063c0 4.308594 3.503906 7.8125 7.808594 7.8125h384.378906c4.304688 0 7.808594-3.503906 7.808594-7.8125v-30.164063c0-4.304687-3.503906-7.808593-7.808594-7.808593zm0 0" fill="#3762cc"/><path d="m63.351562 380.246094v37.1875c0 6.570312 5.25 11.894531 11.726563 11.894531h33.660156c6.480469 0 11.730469-5.324219 11.730469-11.894531v-37.1875zm0 0" fill="#f9a7a7"/><path d="m108.738281 433.328125h-33.660156c-8.671875 0-15.726563-7.128906-15.726563-15.894531v-37.1875c0-2.210938 1.789063-4 4-4h57.121094c2.207032 0 4 1.789062 4 4v37.1875c-.003906 8.765625-7.058594 15.894531-15.734375 15.894531zm-41.386719-49.082031v33.1875c0 4.355468 3.464844 7.894531 7.726563 7.894531h33.660156c4.265625 0 7.730469-3.542969 7.730469-7.894531v-33.1875zm0 0" fill="#3762cc"/><path d="m301.796875 380.246094v37.1875c0 6.570312 5.253906 11.894531 11.730469 11.894531h33.664062c6.476563 0 11.730469-5.324219 11.730469-11.894531v-37.1875zm0 0" fill="#f9a7a7"/><path d="m347.1875 433.328125h-33.660156c-8.671875 0-15.730469-7.128906-15.730469-15.894531v-37.1875c0-2.210938 1.792969-4 4-4h57.125c2.207031 0 4 1.789062 4 4v37.1875c-.003906 8.765625-7.058594 15.894531-15.734375 15.894531zm-41.390625-49.082031v33.1875c0 4.355468 3.46875 7.894531 7.730469 7.894531h33.660156c4.261719 0 7.726562-3.542969 7.726562-7.894531v-33.1875zm0 0" fill="#3762cc"/><path d="m400.273438 326.460938c.957031 0 1.886718.128906 2.777343.351562v-67.011719c0-11.21875-8.964843-20.316406-20.03125-20.316406h-346.980469c-11.066406 0-20.03125 9.09375-20.03125 20.316406v66.660157zm0 0" fill="#4671c6"/><path d="m403.050781 330.8125c-.320312 0-.640625-.042969-.957031-.121094-.632812-.15625-1.230469-.230468-1.820312-.230468h-384.265626c-2.207031 0-4-1.792969-4-4v-66.660157c0-13.40625 10.78125-24.3125 24.03125-24.3125h346.984376c13.25 0 24.03125 10.90625 24.03125 24.3125v67.011719c0 1.226562-.566407 2.386719-1.535157 3.148438-.714843.554687-1.582031.851562-2.46875.851562zm-383.042969-8.351562h379.042969v-62.660157c0-8.996093-7.191406-16.3125-16.03125-16.3125h-346.980469c-8.839843 0-16.03125 7.316407-16.03125 16.3125zm0 0" fill="#3762cc"/><path d="m90.304688 317.214844c-18.617188 0-33.765626-15.363282-33.765626-34.242188s15.148438-34.238281 33.765626-34.238281c18.621093 0 33.765624 15.359375 33.765624 34.238281s-15.144531 34.242188-33.765624 34.242188zm0 0" fill="#f9a7a7"/><path d="m90.304688 306.871094c-12.996094 0-23.566407-10.71875-23.566407-23.898438 0-13.175781 10.574219-23.898437 23.566407-23.898437 12.996093 0 23.566406 10.722656 23.566406 23.898437 0 13.179688-10.570313 23.898438-23.566406 23.898438zm0 0" fill="#ffea92"/><path d="m328.753906 317.214844c-18.617187 0-33.765625-15.363282-33.765625-34.242188s15.148438-34.238281 33.765625-34.238281c18.617188 0 33.765625 15.359375 33.765625 34.238281s-15.148437 34.242188-33.765625 34.242188zm0 0" fill="#f9a7a7"/><path d="m328.753906 306.871094c-12.992187 0-23.566406-10.71875-23.566406-23.898438 0-13.175781 10.574219-23.898437 23.566406-23.898437 12.996094 0 23.566406 10.722656 23.566406 23.898437 0 13.179688-10.574218 23.898438-23.566406 23.898438zm0 0" fill="#ffea92"/><path d="m273.882812 300.496094h-128.707031c-4.539062 0-8.21875-3.679688-8.21875-8.21875v-18.609375c0-4.539063 3.679688-8.21875 8.21875-8.21875h128.707031c4.539063 0 8.21875 3.679687 8.21875 8.21875v18.609375c0 4.539062-3.679687 8.21875-8.21875 8.21875zm0 0" fill="#f9cfcf"/><path d="m407.394531 135.027344h41.390625l5.480469 54.316406c.40625 4.007812-2.742187 7.488281-6.769531 7.488281h-11.617188c-2.816406 0-5.339844-1.734375-6.347656-4.359375zm0 0" fill="#f9a7a7"/><path d="m447.496094 200.828125h-11.621094c-4.433594 0-8.484375-2.78125-10.078125-6.917969l-22.136719-57.449218c-.472656-1.226563-.308594-2.613282.4375-3.703126.746094-1.085937 1.976563-1.734374 3.296875-1.734374h41.390625c2.050782 0 3.773438 1.554687 3.980469 3.597656l5.476563 54.316406c.304687 3.035156-.691407 6.070312-2.734376 8.332031-2.042968 2.261719-4.964843 3.558594-8.011718 3.558594zm-34.273438-61.804687 20.039063 52.011718c.414062 1.070313 1.464843 1.792969 2.617187 1.792969h11.617188c1.085937 0 1.769531-.578125 2.082031-.921875.308594-.34375.816406-1.085938.707031-2.164062l-5.117187-50.71875zm0 0" fill="#3762cc"/><path d="m401.25 84.410156 10.695312-16.140625c2.160157-3.261719 6.011719-5.253906 10.164063-5.253906h38.675781c7.515625 0 13.605469 5.605469 13.605469 12.523437v46.964844c0 6.914063-6.089844 12.523438-13.605469 12.523438h-59.539062v-50.617188zm0 0" fill="#f9a7a7"/><path d="m460.785156 139.023438h-59.535156c-2.207031 0-4-1.789063-4-4v-50.613282c0-.785156.230469-1.554687.664062-2.207031l10.699219-16.140625c2.917969-4.410156 7.964844-7.042969 13.5-7.042969h38.671875c9.707032 0 17.609375 7.410157 17.609375 16.523438v46.960937c-.003906 9.109375-7.902343 16.519532-17.609375 16.519532zm-55.535156-8h55.535156c5.296875 0 9.609375-3.820313 9.609375-8.519532v-46.964844c0-4.699218-4.308593-8.523437-9.609375-8.523437h-38.671875c-2.800781 0-5.417969 1.328125-6.832031 3.460937l-10.03125 15.136719zm0 0" fill="#3762cc"/><path d="m288.164062 103.90625-49.167968-15.492188c.203125-1.410156.34375-2.839843.34375-4.304687 0-16.570313-13.433594-30-30-30-7.644532 0-14.597656 2.882813-19.894532 7.585937-4.234374-11.425781-15.203124-19.585937-28.105468-19.585937-16.566406 0-30 13.429687-30 30 0 6.914063 2.363281 13.269531 6.296875 18.339844-1.40625-.203125-2.832031-.339844-4.296875-.339844-16.566406 0-30 13.429687-30 30 0 16.566406 13.433594 30 30 30 3.613281 0 7.0625-.671875 10.273437-1.84375-.160156 1.261719-.273437 2.539063-.273437 3.84375 0 16.566406 13.433594 30 30 30 14.058594 0 25.820312-9.683594 29.074218-22.730469 5.164063 4.203125 11.746094 6.730469 18.925782 6.730469 16.566406 0 30-13.433594 30-30 0-3.34375-.570313-6.546875-1.578125-9.546875l38.660156-15.113281c3.515625-1.375 3.34375-6.410157-.257813-7.542969zm0 0" fill="#f9cfcf"/><path d="m383.390625 135.027344h17.859375l-13.277344 39.308594c-.707031 2.089843-2.667968 3.5-4.875 3.5-3.136718 0-5.542968-2.78125-5.089844-5.886719zm0 0" fill="#ffea92"/><path d="m446.222656 135.027344h-74.078125c-3.964843 0-7.179687-3.214844-7.179687-7.183594v-40.632812c0-3.96875 3.214844-7.183594 7.179687-7.183594h74.078125c8.160156 0 14.777344 6.617187 14.777344 14.777344v25.441406c0 8.164062-6.617188 14.78125-14.777344 14.78125zm0 0" fill="#6bdddd"/><path d="m383.101562 181.832031c-2.65625 0-5.175781-1.152343-6.914062-3.160156s-2.515625-4.667969-2.136719-7.300781l5.378907-36.921875c.289062-1.964844 1.972656-3.425781 3.957031-3.425781h17.863281c1.289062 0 2.496094.625 3.25 1.667968.75 1.046875.953125 2.390625.539062 3.613282l-13.277343 39.3125c-1.253907 3.71875-4.734375 6.214843-8.660157 6.214843zm3.746094-42.808593-4.878906 33.5c-.066406.453124.140625.765624.265625.914062.128906.148438.410156.394531.867187.394531.492188 0 .925782-.308593 1.082032-.773437l11.496094-34.035156zm0 0" fill="#3762cc"/><path d="m446.21875 139.023438h-74.074219c-6.167969 0-11.183593-5.015626-11.183593-11.179688v-40.632812c0-6.167969 5.015624-11.183594 11.183593-11.183594h74.074219c10.355469 0 18.78125 8.421875 18.78125 18.78125v25.441406c0 10.351562-8.425781 18.773438-18.78125 18.773438zm-74.074219-54.996094c-1.753906 0-3.183593 1.425781-3.183593 3.183594v40.632812c0 1.753906 1.429687 3.179688 3.183593 3.179688h74.074219c5.945312 0 10.78125-4.832032 10.78125-10.777344v-25.4375c0-5.945313-4.835938-10.78125-10.78125-10.78125zm0 0" fill="#3762cc"/><path d="m364.960938 124.820312h-16.441407c-3.757812 0-6.804687-3.046874-6.804687-6.804687v-23.8125c0-3.757813 3.046875-6.804687 6.804687-6.804687h16.441407zm0 0" fill="#a4c9ff"/><path d="m364.960938 128.820312h-16.441407c-5.960937 0-10.804687-4.847656-10.804687-10.804687v-23.8125c0-5.957031 4.847656-10.804687 10.804687-10.804687h16.441407c2.210937 0 4 1.792968 4 4v37.421874c0 2.207032-1.789063 4-4 4zm-16.441407-37.421874c-1.546875 0-2.804687 1.257812-2.804687 2.804687v23.8125c0 1.546875 1.257812 2.804687 2.804687 2.804687h12.445313v-29.421874zm0 0" fill="#3762cc"/><path d="m173.339844 186.109375c-18.261719 0-33.207032-14.472656-33.96875-32.550781-1.996094.367187-4.011719.550781-6.03125.550781-18.746094 0-34-15.253906-34-34 0-17.765625 13.695312-32.386719 31.078125-33.875-2.027344-4.402344-3.078125-9.179687-3.078125-14.128906 0-18.746094 15.253906-34 34-34 12.359375 0 23.699218 6.820312 29.640625 17.414062 5.460937-3.515625 11.820312-5.414062 18.359375-5.414062 18.75 0 34 15.253906 34 34 0 .484375-.011719.96875-.039063 1.46875l46.066407 14.515625c3.28125 1.035156 5.476562 3.925781 5.589843 7.363281.117188 3.4375-1.878906 6.464844-5.082031 7.71875l-35.304688 13.800781c.511719 2.355469.769532 4.742188.769532 7.132813 0 18.746093-15.25 34-34 34-5.914063 0-11.726563-1.5625-16.832032-4.464844-5.300781 12.28125-17.4375 20.46875-31.167968 20.46875zm-29.726563-41.84375c.894531 0 1.777344.300781 2.5.875 1.089844.871094 1.644531 2.25 1.464844 3.632813-.164063 1.28125-.238281 2.339843-.238281 3.335937 0 14.335937 11.664062 26 26 26 11.941406 0 22.300781-8.101563 25.195312-19.699219.332032-1.328125 1.320313-2.394531 2.617188-2.828125 1.292968-.4375 2.726562-.171875 3.792968.695313 4.6875 3.8125 10.359376 5.832031 16.398438 5.832031 14.335938 0 26-11.664063 26-26 0-2.785156-.460938-5.570313-1.375-8.277344-.675781-2.023437.351562-4.222656 2.335938-4.996093l38.660156-15.113282-49.171875-15.496094c-1.867188-.585937-3.035157-2.445312-2.753907-4.382812.207032-1.433594.300782-2.621094.300782-3.734375 0-14.335937-11.664063-26-26-26-6.335938 0-12.460938 2.335937-17.238282 6.578125-.988281.875-2.351562 1.207031-3.625.890625-1.28125-.320313-2.324218-1.253906-2.78125-2.492187-3.765624-10.15625-13.554687-16.976563-24.355468-16.976563-14.335938 0-26 11.664063-26 26 0 5.789063 1.886718 11.285156 5.457031 15.894531.996094 1.289063 1.113281 3.054688.292969 4.460938-.820313 1.410156-2.433594 2.175781-4.03125 1.945312-1.429688-.207031-2.613282-.300781-3.722656-.300781-14.335938 0-26 11.664063-26 26s11.664062 26 26 26c3 0 5.992187-.539063 8.898437-1.601563.453125-.164062.917969-.242187 1.378906-.242187zm0 0" fill="#3762cc"/><g fill="#ffea92"><path d="m33.726562 46.15625c-6.742187 14.738281-17.929687 27.015625-31.851562 35.128906-2.5 1.457032-2.5 4.988282 0 6.445313 13.921875 8.109375 25.109375 20.390625 31.851562 35.128906 1.3125 2.863281 5.390626 2.863281 6.703126 0 6.746093-14.738281 17.929687-27.019531 31.855468-35.128906 2.496094-1.457031 2.496094-4.988281 0-6.445313-13.925781-8.113281-25.109375-20.390625-31.855468-35.128906-1.3125-2.863281-5.390626-2.863281-6.703126 0zm0 0"/><path d="m84.652344 1.503906c-4.71875 10.316406-12.550782 18.910156-22.296875 24.589844-1.746094 1.019531-1.746094 3.492188 0 4.511719 9.746093 5.675781 17.578125 14.273437 22.296875 24.589843.917968 2.003907 3.777344 2.003907 4.691406 0 4.71875-10.316406 12.550781-18.910156 22.296875-24.589843 1.75-1.019531 1.75-3.492188 0-4.511719-9.746094-5.679688-17.578125-14.273438-22.296875-24.589844-.917969-2.003906-3.773438-2.003906-4.691406 0zm0 0"/><path d="m341.714844 97.605469h-36.847656c-1.878907 0-3.402344 1.523437-3.402344 3.402343v10.207032c0 1.875 1.523437 3.398437 3.402344 3.398437h36.847656zm0 0"/></g><path d="m341.714844 118.613281h-36.847656c-4.082032 0-7.402344-3.316406-7.402344-7.398437v-10.210938c0-4.078125 3.320312-7.398437 7.402344-7.398437h36.847656c2.207031 0 4 1.792969 4 4v17.007812c0 2.210938-1.789063 4-4 4zm-36.25-8h32.25v-9.007812h-32.25zm0 0" fill="#3762cc"/><path d="m468 421.890625h-11.785156c-2.15625 0-4.179688-.84375-5.695313-2.382813-1.511719-1.535156-2.332031-3.566406-2.300781-5.726562l2.925781-216.84375c.007813-.390625-.046875-.765625-.097656-1.144531-1.035156.636719-2.238281 1.039062-3.550781 1.039062h-11.617188c-.25 0-.492187-.03125-.734375-.058593l-2.925781 216.792968c-.089844 6.472656 2.367188 12.574219 6.914062 17.183594 4.542969 4.605469 10.609376 7.144531 17.082032 7.144531h11.785156c4.417969 0 8-3.582031 8-8s-3.582031-8.003906-8-8.003906zm0 0" fill="#e0ebfc"/><path d="m468 441.890625h-11.785156c-7.550782 0-14.625-2.960937-19.929688-8.335937-5.304687-5.375-8.167968-12.492188-8.066406-20.042969l2.925781-216.792969c.015625-1.128906.507813-2.199219 1.359375-2.945312.84375-.75 1.964844-1.109376 3.09375-.972657l.300782.03125h11.597656c.488281 0 .976562-.148437 1.453125-.441406 1.15625-.714844 2.59375-.792969 3.820312-.210937 1.222657.585937 2.070313 1.75 2.246094 3.097656.082031.640625.136719 1.171875.128906 1.71875l-2.925781 216.839844c-.015625 1.09375.382812 2.082031 1.148438 2.863281.769531.78125 1.753906 1.191406 2.847656 1.191406h11.785156c6.617188 0 12 5.382813 12 12s-5.382812 12-12 12zm-28.90625-241.0625-2.875 212.789063c-.074219 5.394531 1.972656 10.480468 5.761719 14.316406 3.789062 3.839844 8.84375 5.957031 14.234375 5.957031h11.785156c2.207031 0 4-1.792969 4-4s-1.792969-4-4-4h-11.785156c-3.234375 0-6.269532-1.269531-8.539063-3.574219-2.273437-2.304687-3.5-5.351562-3.457031-8.589844l2.875-212.894531h-8zm0 0" fill="#3762cc"/></svg>